<?xml version="1.0" encoding="utf-8"?>
<!-- Generator: Adobe Illustrator 23.0.1, SVG Export Plug-In . SVG Version: 6.00 Build 0)  -->
<svg version="1.1" id="logo-white" xmlns="http://www.w3.org/2000/svg" xmlns:xlink="http://www.w3.org/1999/xlink" x="0px" y="0px"
	 viewBox="0 0 150 40" style="enable-background:new 0 0 150 40;" xml:space="preserve">
<style type="text/css">
	.st0{fill:none;}
	.st1{fill:#FFFFFF;}
	.st2{enable-background:new    ;}
</style>
<g id="mark" transform="translate(-41.211 -44.043)">
	<g id="base" transform="translate(41.211 44.043)">
		<g>
			<rect y="0" class="st0" width="39" height="40"/>
		</g>
		<g>
			<path class="st1" d="M39,40H0V0h39V40z M1,39h37V1H1V39z"/>
		</g>
	</g>
	<g id="mark-2" transform="translate(53.211 55.043)">
		<g id="Path_23546">
			<path class="st1" d="M5.9,5.5C5.5,5.4,5.1,5.4,4.6,5.3H1v4.9h3.3c0.5,0,1,0,1.4-0.1c0.9-0.1,1.6-0.7,1.7-1.5
				c0.1-0.4,0.1-0.8,0.1-1.2C7.5,6.5,6.8,5.7,5.9,5.5z"/>
		</g>
		<g id="Path_23547">
			<path class="st1" d="M1,13.6v0.9c0.7,0.8,1.6,1.5,2.5,2.1c0.7,0.6,1.6,1.1,2.5,1.4C6,18,6.1,18.1,6.3,18.1
				c-0.7-1.5-1.5-3-2.3-4.5L1,13.6z"/>
		</g>
		<g id="Path_23548">
			<path class="st1" d="M4.5,1.6c1.2,0,2.5,0.1,3.7,0.4c1.3,0.3,2.5,1.2,3.1,2.5c0.6,1.3,0.8,2.8,0.5,4.2c-0.3,1.8-1.5,3.3-3.3,3.8
				c0.2,0.4,2.4,4.3,2.5,4.5c0.1-0.1,0.2-0.1,0.3-0.2c1.7-1.2,3.1-2.8,4.1-4.6l0.2-0.4V2.3c-1.6-0.9-3.4-1.6-5.2-2
				c-0.3-0.1-0.7-0.1-1.1-0.2C8.2,0,7,0,6.7,0H6.6C5.7,0,4.8,0.2,3.9,0.3C2.6,0.6,1.4,1,0.2,1.5C0.1,1.5,0,1.6,0,1.7h0.2
				C1.6,1.7,3.1,1.6,4.5,1.6z"/>
		</g>
	</g>
</g>
<g class="st2">
	<path class="st1" d="M53.9,28H52V12.6h6.1c1.3,0,2.4,0.4,3.2,1.1s1.1,1.8,1.1,3.2c0,1.1-0.3,2.1-0.8,2.8c-0.5,0.7-1.3,1.2-2.3,1.4
		l3.5,6.8h-2.1l-3.3-6.6h-3.6V28z M58.2,19.8c0.7,0,1.3-0.2,1.7-0.6c0.4-0.4,0.6-0.9,0.6-1.6v-1.1c0-0.7-0.2-1.2-0.6-1.6
		c-0.4-0.4-1-0.6-1.7-0.6h-4.3v5.5H58.2z"/>
	<path class="st1" d="M69.3,28.3c-0.8,0-1.5-0.1-2.1-0.4c-0.6-0.3-1.2-0.7-1.6-1.2c-0.4-0.5-0.8-1.1-1-1.9c-0.2-0.7-0.4-1.5-0.4-2.5
		c0-0.9,0.1-1.7,0.4-2.4s0.6-1.4,1-1.9c0.4-0.5,1-0.9,1.6-1.2c0.6-0.3,1.3-0.4,2.1-0.4c0.8,0,1.4,0.1,2,0.4c0.6,0.3,1.1,0.7,1.5,1.2
		c0.4,0.5,0.8,1.1,1,1.7c0.2,0.7,0.3,1.4,0.3,2.2v0.8h-8.2v0.5c0,0.5,0.1,0.9,0.2,1.4c0.2,0.4,0.4,0.8,0.7,1.1s0.6,0.5,1.1,0.7
		c0.4,0.2,0.9,0.3,1.4,0.3c0.7,0,1.3-0.2,1.9-0.5c0.5-0.3,0.9-0.8,1.2-1.5l1.3,0.9c-0.4,0.8-0.9,1.4-1.7,1.9
		C71.3,28,70.4,28.3,69.3,28.3z M69.3,17.9c-0.5,0-0.9,0.1-1.3,0.3s-0.7,0.4-1,0.7s-0.5,0.7-0.7,1.1c-0.2,0.4-0.2,0.9-0.2,1.4v0.2
		h6.3v-0.2c0-1-0.3-1.8-0.8-2.4C71,18.2,70.2,17.9,69.3,17.9z"/>
	<path class="st1" d="M80,28.3c-1.1,0-1.9-0.2-2.7-0.6c-0.7-0.4-1.3-0.9-1.8-1.6l1.3-1c0.4,0.6,0.9,1,1.5,1.3s1.2,0.5,1.9,0.5
		c0.7,0,1.3-0.2,1.7-0.5s0.6-0.8,0.6-1.4c0-0.4-0.1-0.8-0.4-1.1s-0.8-0.5-1.6-0.6L79.6,23c-0.5-0.1-1-0.2-1.5-0.3
		c-0.4-0.2-0.8-0.4-1.2-0.6c-0.3-0.3-0.6-0.6-0.8-1c-0.2-0.4-0.3-0.8-0.3-1.4c0-0.6,0.1-1,0.3-1.5c0.2-0.4,0.5-0.8,0.8-1
		c0.4-0.3,0.8-0.5,1.3-0.6c0.5-0.1,1-0.2,1.6-0.2c0.9,0,1.7,0.2,2.3,0.5c0.6,0.3,1.2,0.8,1.6,1.3l-1.2,1.1c-0.3-0.4-0.6-0.7-1.1-1
		c-0.5-0.3-1.1-0.4-1.8-0.4c-0.7,0-1.3,0.2-1.7,0.5c-0.4,0.3-0.6,0.7-0.6,1.3c0,0.6,0.2,1,0.6,1.2c0.4,0.3,0.9,0.4,1.6,0.6l0.9,0.1
		c1.3,0.2,2.2,0.6,2.7,1.1s0.8,1.2,0.8,2.1c0,1.1-0.4,2-1.1,2.6S81.3,28.3,80,28.3z"/>
	<path class="st1" d="M91,28.3c-0.8,0-1.5-0.1-2.1-0.4c-0.6-0.3-1.2-0.7-1.6-1.2c-0.4-0.5-0.8-1.1-1-1.9c-0.2-0.7-0.4-1.5-0.4-2.5
		c0-0.9,0.1-1.7,0.4-2.4s0.6-1.4,1-1.9c0.4-0.5,1-0.9,1.6-1.2c0.6-0.3,1.3-0.4,2.1-0.4c0.8,0,1.4,0.1,2,0.4c0.6,0.3,1.1,0.7,1.5,1.2
		c0.4,0.5,0.8,1.1,1,1.7c0.2,0.7,0.3,1.4,0.3,2.2v0.8h-8.2v0.5c0,0.5,0.1,0.9,0.2,1.4c0.2,0.4,0.4,0.8,0.7,1.1s0.6,0.5,1.1,0.7
		c0.4,0.2,0.9,0.3,1.4,0.3c0.7,0,1.3-0.2,1.9-0.5c0.5-0.3,0.9-0.8,1.2-1.5l1.3,0.9c-0.4,0.8-0.9,1.4-1.7,1.9
		C93,28,92.1,28.3,91,28.3z M91,17.9c-0.5,0-0.9,0.1-1.3,0.3s-0.7,0.4-1,0.7c-0.3,0.3-0.5,0.7-0.7,1.1c-0.2,0.4-0.2,0.9-0.2,1.4v0.2
		H94v-0.2c0-1-0.3-1.8-0.8-2.4C92.7,18.2,91.9,17.9,91,17.9z"/>
	<path class="st1" d="M102.5,28.3c-0.8,0-1.5-0.1-2.1-0.4c-0.6-0.3-1.2-0.7-1.6-1.2c-0.4-0.5-0.8-1.1-1-1.9
		c-0.2-0.7-0.3-1.6-0.3-2.5s0.1-1.7,0.3-2.5c0.2-0.7,0.6-1.4,1-1.9c0.4-0.5,1-0.9,1.6-1.2c0.6-0.3,1.3-0.4,2.1-0.4
		c1.1,0,2,0.2,2.7,0.7c0.7,0.5,1.2,1.1,1.5,1.9l-1.5,0.7c-0.2-0.6-0.5-1-1-1.4c-0.5-0.3-1.1-0.5-1.8-0.5c-0.5,0-1,0.1-1.4,0.3
		s-0.7,0.4-1,0.7c-0.3,0.3-0.5,0.7-0.6,1.1s-0.2,0.9-0.2,1.4v1.9c0,1,0.3,1.8,0.8,2.5s1.3,1,2.4,1c1.4,0,2.4-0.7,3.1-2l1.3,0.9
		c-0.4,0.8-0.9,1.5-1.6,2C104.5,28,103.6,28.3,102.5,28.3z"/>
	<path class="st1" d="M115.8,26.2L115.8,26.2c-0.2,0.3-0.3,0.5-0.5,0.8c-0.2,0.3-0.4,0.5-0.6,0.7c-0.3,0.2-0.6,0.4-0.9,0.5
		c-0.4,0.1-0.8,0.2-1.2,0.2c-1.2,0-2.1-0.4-2.8-1.1c-0.7-0.8-1-1.8-1-3.2v-7.3h1.8v7c0,2,0.9,3.1,2.6,3.1c0.4,0,0.7,0,1-0.1
		c0.3-0.1,0.6-0.2,0.9-0.4c0.3-0.2,0.5-0.4,0.6-0.7c0.2-0.3,0.2-0.6,0.2-1v-7.9h1.8V28h-1.8V26.2z"/>
	<path class="st1" d="M120.8,28V16.6h1.8v2.1h0.1c0.2-0.5,0.6-1,1.1-1.5c0.5-0.4,1.3-0.6,2.2-0.6h0.7v1.8h-1c-1,0-1.7,0.2-2.2,0.5
		s-0.8,0.8-0.8,1.4V28H120.8z"/>
	<path class="st1" d="M129.2,14c-0.4,0-0.7-0.1-0.8-0.3s-0.3-0.4-0.3-0.7v-0.3c0-0.3,0.1-0.5,0.3-0.7s0.4-0.3,0.8-0.3
		s0.7,0.1,0.8,0.3c0.2,0.2,0.3,0.4,0.3,0.7V13c0,0.3-0.1,0.5-0.3,0.7C129.8,13.9,129.5,14,129.2,14z M128.3,16.6h1.8V28h-1.8V16.6z"
		/>
	<path class="st1" d="M135.7,28c-0.6,0-1.1-0.2-1.4-0.5s-0.5-0.8-0.5-1.4v-7.9H132v-1.6h1.1c0.4,0,0.6-0.1,0.8-0.2
		c0.1-0.2,0.2-0.4,0.2-0.8v-2.1h1.6v3.1h2.5v1.6h-2.5v8.2h2.3V28H135.7z"/>
	<path class="st1" d="M147.4,16.6h1.7l-5.1,14c-0.1,0.3-0.3,0.6-0.4,0.8c-0.1,0.2-0.3,0.4-0.5,0.5c-0.2,0.1-0.4,0.2-0.7,0.3
		s-0.6,0.1-1,0.1h-0.9v-1.6h1.8l0.9-2.4l-4.2-11.8h1.8l2.7,7.7l0.5,1.8h0.1l0.6-1.8L147.4,16.6z"/>
</g>
</svg>
